<svg xmlns="http://www.w3.org/2000/svg" width="2000" height="2566" viewBox="0 0 2000 2566" version="1.1"><path d="M 131.577 457.787 C 131.859 459.279, 139.228 505.661, 147.952 560.857 C 156.677 616.054, 164.194 661.589, 164.657 662.046 C 165.826 663.198, 224.236 686.097, 224.735 685.599 C 224.957 685.377, 220.434 655.564, 214.683 619.348 C 208.933 583.131, 204.314 553.401, 204.418 553.279 C 204.523 553.158, 232.484 564.030, 266.554 577.440 C 310.527 594.747, 328.590 601.430, 328.812 600.472 C 329.094 599.250, 318.253 528.835, 317.724 528.453 C 317.465 528.266, 137.868 457.609, 133.782 456.087 C 131.191 455.121, 131.089 455.200, 131.577 457.787 M 375 551.642 C 375 554.540, 386.400 623.707, 386.980 624.326 C 387.405 624.781, 644.799 726.364, 958.967 850.066 L 1530.180 1074.980 1557.787 1052.229 C 1572.970 1039.715, 1585.349 1029.033, 1585.295 1028.490 C 1585.240 1027.947, 1314.139 920.759, 982.848 790.295 C 330.827 533.525, 375 550.868, 375 551.642 M 177.125 745.230 C 208.955 947.610, 423.113 2297.447, 423.444 2297.778 C 423.710 2298.043, 428.781 2294.245, 434.714 2289.338 C 440.646 2284.431, 709.200 2063.141, 1031.500 1797.584 C 1353.800 1532.027, 1618.760 1313.540, 1620.301 1312.056 L 1623.102 1309.360 1589.428 1296.120 C 1570.908 1288.838, 1555.247 1283.093, 1554.627 1283.354 C 1554.007 1283.614, 1308.028 1486.150, 1008.007 1733.434 C 707.986 1980.719, 462.414 2182.695, 462.291 2182.271 C 462.169 2181.847, 411.636 1862.900, 349.995 1473.500 C 288.355 1084.100, 237.809 765.109, 237.671 764.631 C 237.476 763.952, 184.888 742.695, 177.898 740.469 C 176.499 740.024, 176.401 740.627, 177.125 745.230 M 844.500 968.115 C 796.922 970.066, 752.676 983.342, 719 1005.770 C 710.408 1011.493, 703.946 1016.978, 693.443 1027.465 C 674.670 1046.208, 665.119 1060.545, 656.449 1082.995 C 638.817 1128.648, 641.006 1194.305, 661.517 1235.033 C 666.535 1244.999, 677.819 1261.393, 686.272 1271 C 704.867 1292.135, 728.643 1308.247, 773.291 1329.968 C 813.464 1349.512, 824.697 1356.078, 834.353 1365.657 C 841.525 1372.773, 842.658 1374.915, 844.074 1384.040 C 845.708 1394.571, 844.587 1401.615, 840.653 1405.537 C 834.126 1412.043, 817.170 1416.170, 797 1416.161 C 780.816 1416.154, 771.083 1414.659, 744.021 1408.022 C 727.551 1403.983, 721.869 1403, 715.001 1403 C 688.966 1403, 668.614 1417.444, 658.640 1443 C 652.962 1457.546, 641.009 1508.442, 641.025 1518 C 641.059 1537.697, 651.250 1556.453, 667.827 1567.325 C 685.461 1578.891, 717.604 1586.999, 764.215 1591.638 C 785.124 1593.719, 825.581 1593.984, 841.500 1592.143 C 907.044 1584.565, 953.117 1564.957, 988.568 1529.554 C 1019.798 1498.367, 1035.246 1463.342, 1039.094 1415 C 1042.354 1374.033, 1035.021 1334.731, 1018.662 1305.500 C 997.419 1267.540, 968.804 1243.117, 909.167 1212.044 C 869.777 1191.520, 860.774 1185.902, 851.977 1176.359 C 847.063 1171.029, 845.482 1167.457, 844.624 1159.758 C 843.843 1152.750, 845.256 1150.899, 853.195 1148.522 C 872.486 1142.747, 889.075 1144.177, 923 1154.540 C 958.882 1165.501, 990 1149.312, 1001.885 1113.500 C 1008.239 1094.354, 1016 1055.996, 1016 1043.740 C 1016 1023.613, 1005.689 1004.930, 988.638 994.161 C 961.502 977.023, 899.682 965.852, 844.500 968.115 M 834 1016.125 C 811.097 1018.440, 781.825 1026.254, 763.765 1034.874 C 745.248 1043.711, 725.779 1059.577, 714.524 1075 C 704.889 1088.205, 697.832 1105.582, 694.424 1124.500 C 691.982 1138.054, 691.909 1168.644, 694.288 1181.636 C 701.849 1222.932, 723.630 1249.450, 771.680 1275.856 C 777.828 1279.235, 783.133 1282, 783.468 1282 C 784.665 1282, 831.662 1305.808, 840.101 1310.688 C 857.417 1320.704, 872.755 1334.325, 880.698 1346.742 C 884.886 1353.290, 889.401 1365.183, 890.959 1373.772 C 891.571 1377.147, 892.069 1385.442, 892.065 1392.204 C 892.053 1416.431, 885.762 1430.626, 869.116 1443.986 C 861.415 1450.166, 854.160 1453.930, 843.500 1457.276 C 826.262 1462.687, 820.074 1463.502, 796.500 1463.468 C 771.728 1463.432, 766.324 1462.702, 736.701 1455.392 C 716.649 1450.444, 711.510 1450.024, 707.698 1453.023 C 704.172 1455.797, 702.223 1461.542, 695.008 1490.433 C 687.950 1518.695, 687.688 1522.730, 692.651 1526.723 C 703.621 1535.548, 751.022 1544.190, 796.500 1545.655 C 850.269 1547.388, 901.072 1535.528, 933.926 1513.574 C 965.089 1492.750, 982.663 1465.656, 989.756 1427.500 C 992.170 1414.517, 992.094 1379.235, 989.623 1365.500 C 986.362 1347.373, 981.065 1334.209, 970.945 1319.078 C 955.430 1295.884, 932.981 1278.358, 890.264 1256.091 C 845.263 1232.633, 833.288 1225.094, 820.007 1211.859 C 803.489 1195.398, 797.056 1180.132, 797.017 1157.299 C 796.986 1138.771, 800.419 1129.366, 811.052 1118.854 C 822.824 1107.216, 840.808 1100.327, 865.777 1097.889 C 884.787 1096.032, 908.799 1099.503, 931.925 1107.449 C 941.077 1110.593, 947.745 1110.775, 951.302 1107.977 C 955.026 1105.048, 957.516 1097.487, 963.646 1070.500 C 969.760 1043.583, 969.920 1040.105, 965.228 1035.912 C 955.988 1027.656, 921.205 1019.086, 884.500 1016.022 C 870.467 1014.851, 846.114 1014.900, 834 1016.125 M 1622.351 1076.352 C 1606.869 1089.083, 1594.494 1099.785, 1594.851 1100.134 C 1595.208 1100.483, 1622.835 1111.508, 1656.245 1124.634 C 1689.655 1137.760, 1716.972 1148.725, 1716.948 1149 C 1716.925 1149.275, 1693.966 1168.351, 1665.927 1191.391 C 1637.889 1214.431, 1615.073 1233.398, 1615.224 1233.539 C 1615.778 1234.054, 1682.176 1260, 1682.941 1260 C 1683.891 1260, 1841.399 1130.297, 1841.734 1129.239 C 1841.862 1128.833, 1800.237 1112.107, 1749.234 1092.070 C 1698.230 1072.034, 1655.150 1055.093, 1653.500 1054.422 C 1650.523 1053.214, 1650.281 1053.384, 1622.351 1076.352" stroke="none" fill="#fcfbfb" fill-rule="evenodd"/><path d="M 271 233.839 C 271 234.300, 281.624 301.463, 294.609 383.089 C 335.489 640.076, 350.250 734.083, 349.794 734.540 C 349.377 734.956, 248.344 695.395, 90.646 633.066 C 50.026 617.011, 16.639 604.028, 16.452 604.215 C 16.213 604.454, 311.664 2472.319, 325.232 2556.353 L 326.500 2564.205 1080.478 1942.853 C 1495.165 1601.109, 1834.406 1321.050, 1834.345 1320.500 C 1834.284 1319.950, 1800.319 1306.188, 1758.867 1289.917 C 1615.114 1233.491, 1492.893 1185.226, 1492.327 1184.661 C 1492.134 1184.468, 1514.390 1165.850, 1541.784 1143.288 C 1569.178 1120.726, 1592.246 1101.619, 1593.046 1100.828 C 1595.067 1098.830, 1633.145 1067.401, 1646.500 1056.708 C 1680.640 1029.372, 1877.857 866.362, 1877.661 865.641 C 1877.532 865.168, 1866.193 860.375, 1852.464 854.989 C 1838.734 849.604, 1477.696 707.453, 1050.157 539.099 C 622.619 370.745, 272.407 233, 271.907 233 C 271.408 233, 271 233.378, 271 233.839 M 339.465 326.166 C 340.057 328.696, 372.112 532.073, 379.001 577 C 381.320 592.125, 384.071 609.450, 385.113 615.500 C 386.156 621.550, 391.706 655.926, 397.446 691.891 C 403.186 727.856, 408.246 757.591, 408.691 757.968 C 409.136 758.346, 638.430 848.763, 918.233 958.896 C 1365.480 1134.935, 1427.190 1158.977, 1428.818 1157.818 C 1430.540 1156.592, 1490.990 1106.972, 1556.772 1052.788 C 1699.657 935.094, 1760.694 884.407, 1760.147 883.896 C 1759.791 883.565, 1440.225 757.617, 1050 604.012 C 659.775 450.408, 340.144 324.530, 339.710 324.282 C 339.275 324.035, 339.165 324.883, 339.465 326.166 M 94.298 712.082 C 95.858 723.267, 367.072 2434.886, 367.741 2437.767 L 368.500 2441.035 1033 1893.405 C 1398.475 1592.209, 1698.766 1344.780, 1700.313 1343.563 L 1703.125 1341.351 1664.813 1326.169 C 1643.741 1317.819, 1615.250 1306.476, 1601.500 1300.963 C 1587.750 1295.450, 1567.050 1287.353, 1555.500 1282.970 C 1543.950 1278.588, 1511.325 1265.839, 1483 1254.639 C 1440.658 1237.898, 1431.233 1234.496, 1430 1235.511 C 1429.175 1236.189, 1229.828 1400.442, 987.008 1600.518 C 549.645 1960.889, 545.508 1964.264, 544.734 1961.396 C 544.118 1959.111, 365.540 832.905, 363.351 817.500 L 362.782 813.500 303.141 790.093 C 270.339 777.219, 241.250 765.675, 238.500 764.439 C 233.035 761.984, 177.247 740, 176.481 740 C 176.220 740, 158.160 732.984, 136.346 724.408 C 114.532 715.832, 96.008 708.557, 95.183 708.240 C 93.935 707.761, 93.786 708.410, 94.298 712.082 M 421.273 841.846 C 421.768 844.956, 458.057 1074.075, 501.915 1351 C 545.773 1627.925, 582.093 1854.500, 582.625 1854.500 C 583.157 1854.500, 660.848 1790.825, 755.273 1713 C 919.155 1577.928, 927.443 1571.250, 937.727 1565.998 C 959.320 1554.971, 973.498 1544.709, 989.500 1528.524 C 995.550 1522.405, 1002.750 1514.144, 1005.500 1510.166 C 1010.136 1503.460, 1023.430 1492.270, 1188.250 1356.338 C 1286.012 1275.710, 1365.995 1209.462, 1365.990 1209.121 C 1365.984 1208.779, 1286.559 1177.249, 1189.490 1139.054 C 1092.420 1100.858, 1013 1069.133, 1013 1068.554 C 1013 1067.974, 1013.675 1063.973, 1014.500 1059.662 C 1018.706 1037.680, 1013.929 1018.480, 1000.745 1004.387 C 993.197 996.317, 985.278 991.358, 970.963 985.736 C 941.971 974.349, 901.488 967.918, 859 967.952 C 831.662 967.973, 816.112 969.721, 791 975.597 L 780.500 978.054 602.500 907.934 C 504.600 869.368, 423.572 837.449, 422.437 837.003 C 420.442 836.218, 420.404 836.378, 421.273 841.846 M 834 1016.125 C 811.097 1018.440, 781.825 1026.254, 763.765 1034.874 C 745.248 1043.711, 725.779 1059.577, 714.524 1075 C 704.889 1088.205, 697.832 1105.582, 694.424 1124.500 C 691.982 1138.054, 691.909 1168.644, 694.288 1181.636 C 701.849 1222.932, 723.630 1249.450, 771.680 1275.856 C 777.828 1279.235, 783.133 1282, 783.468 1282 C 784.665 1282, 831.662 1305.808, 840.101 1310.688 C 857.417 1320.704, 872.755 1334.325, 880.698 1346.742 C 884.886 1353.290, 889.401 1365.183, 890.959 1373.772 C 891.571 1377.147, 892.069 1385.442, 892.065 1392.204 C 892.053 1416.431, 885.762 1430.626, 869.116 1443.986 C 861.415 1450.166, 854.160 1453.930, 843.500 1457.276 C 826.262 1462.687, 820.074 1463.502, 796.500 1463.468 C 771.728 1463.432, 766.324 1462.702, 736.701 1455.392 C 716.649 1450.444, 711.510 1450.024, 707.698 1453.023 C 704.172 1455.797, 702.223 1461.542, 695.008 1490.433 C 687.950 1518.695, 687.688 1522.730, 692.651 1526.723 C 703.621 1535.548, 751.022 1544.190, 796.500 1545.655 C 850.269 1547.388, 901.072 1535.528, 933.926 1513.574 C 965.089 1492.750, 982.663 1465.656, 989.756 1427.500 C 992.170 1414.517, 992.094 1379.235, 989.623 1365.500 C 986.362 1347.373, 981.065 1334.209, 970.945 1319.078 C 955.430 1295.884, 932.981 1278.358, 890.264 1256.091 C 845.263 1232.633, 833.288 1225.094, 820.007 1211.859 C 803.489 1195.398, 797.056 1180.132, 797.017 1157.299 C 796.986 1138.771, 800.419 1129.366, 811.052 1118.854 C 822.824 1107.216, 840.808 1100.327, 865.777 1097.889 C 884.787 1096.032, 908.799 1099.503, 931.925 1107.449 C 941.077 1110.593, 947.745 1110.775, 951.302 1107.977 C 955.026 1105.048, 957.516 1097.487, 963.646 1070.500 C 969.760 1043.583, 969.920 1040.105, 965.228 1035.912 C 955.988 1027.656, 921.205 1019.086, 884.500 1016.022 C 870.467 1014.851, 846.114 1014.900, 834 1016.125" stroke="none" fill="#f41a14" fill-rule="evenodd"/></svg>